<?xml version="1.0" encoding="UTF-8" standalone="no"?>
<!DOCTYPE svg PUBLIC "-//W3C//DTD SVG 1.1//EN" "http://www.w3.org/Graphics/SVG/1.1/DTD/svg11.dtd">
<svg xmlns="http://www.w3.org/2000/svg" version="1.1" viewBox="0 0 255 255">
<g stroke-width="2.00" fill="none" stroke-linecap="butt">
<path stroke="#82dbed" vector-effect="non-scaling-stroke" d="
  M 78.70 75.31
  L 78.74 83.30
  A 0.71 0.69 89.6 0 0 79.43 84.00
  L 85.61 84.00
  A 0.92 0.91 89.4 0 0 86.52 83.06
  L 86.25 61.24
  A 1.94 1.89 -10.6 0 1 87.53 59.42
  Q 90.07 58.50 89.11 57.12
  Q 88.30 55.95 87.91 54.58
  Q 86.82 50.81 89.59 50.28
  Q 91.59 49.90 93.42 50.80
  Q 98.57 53.36 103.66 57.67
  A 0.56 0.56 27.8 0 0 104.57 57.39
  Q 105.32 54.70 107.07 53.34
  Q 108.78 52.01 111.31 52.34
  Q 116.46 53.02 116.51 59.78
  A 1.56 1.56 8.6 0 0 117.61 61.27
  Q 120.15 62.06 119.44 65.07
  Q 119.13 66.37 119.12 66.43
  Q 117.62 74.59 116.19 83.10
  A 0.80 0.75 3.5 0 0 117.01 83.97
  L 124.74 83.75
  A 0.53 0.49 -1.2 0 0 125.25 83.26
  L 125.25 24.23
  Q 125.25 23.35 124.52 23.84
  L 66.96 62.86
  A 2.13 1.95 -18.9 0 0 66.04 64.55
  L 66.15 74.06
  A 0.55 0.53 0.0 0 0 66.69 74.58
  L 78.19 74.81
  A 0.52 0.50 0.6 0 1 78.70 75.31"
/>
<path stroke="#82dbed" vector-effect="non-scaling-stroke" d="
  M 137.77 72.88
  Q 157.58 64.70 177.71 57.36
  Q 178.22 57.17 178.63 56.93
  Q 181.34 55.29 178.47 55.68
  Q 178.03 55.74 177.55 55.92
  Q 157.30 63.48 137.27 71.63
  A 1.29 0.97 -37.9 0 1 136.34 71.65
  Q 135.41 71.24 135.90 70.37
  Q 136.18 69.87 136.95 69.56
  Q 156.56 61.71 176.07 53.98
  Q 177.23 53.52 176.20 52.82
  L 133.77 24.03
  Q 132.77 23.35 132.74 24.55
  Q 132.09 53.73 132.80 83.20
  A 0.51 0.50 -0.6 0 0 133.31 83.69
  L 163.82 83.81
  A 0.47 0.46 -2.2 0 0 164.29 83.31
  Q 164.08 79.86 161.02 78.39
  A 0.69 0.68 -74.1 0 1 160.64 77.70
  Q 160.81 76.15 159.99 74.96
  A 1.14 1.00 -12.0 0 0 159.19 74.51
  Q 152.12 73.76 145.00 73.79
  Q 141.95 73.81 139.06 74.73
  Q 138.27 74.98 137.79 74.89
  Q 136.65 74.69 137.10 73.51
  A 1.26 1.02 -4.2 0 1 137.77 72.88"
/>
<path stroke="#85d9eb" vector-effect="non-scaling-stroke" d="
  M 99.49 56.81
  Q 95.99 53.75 91.94 52.22
  Q 90.11 51.53 89.75 53.45
  Q 89.31 55.85 91.90 57.67
  A 1.53 1.42 -27.0 0 0 92.81 57.93
  L 99.17 57.71
  Q 100.47 57.67 99.49 56.81"
/>
<path stroke="#82dbed" vector-effect="non-scaling-stroke" d="
  M 167.56 75.71
  Q 166.05 79.62 168.46 83.10
  A 1.03 0.98 73.0 0 0 169.24 83.54
  L 178.31 83.82
  A 0.58 0.53 2.6 0 0 178.91 83.32
  L 179.22 76.55
  Q 179.31 74.53 181.23 74.56
  L 191.10 74.72
  A 0.93 0.88 -89.4 0 0 192.00 73.79
  L 192.00 64.86
  A 2.17 1.88 -75.3 0 0 191.15 63.14
  L 183.43 57.99
  A 1.15 0.95 -33.3 0 0 182.52 57.89
  Q 178.67 59.05 175.87 61.73
  Q 172.03 65.42 171.63 65.76
  Q 168.28 68.65 165.78 72.34
  A 0.74 0.59 -50.1 0 0 165.76 73.17
  L 167.36 74.94
  A 0.84 0.64 38.3 0 1 167.56 75.71"
/>
<path stroke="#85d9eb" vector-effect="non-scaling-stroke" d="
  M 98.24 65.51
  Q 97.18 67.59 98.92 69.21
  Q 100.22 70.41 102.01 70.21
  Q 105.22 69.86 104.78 66.03
  A 1.25 1.25 -87.8 0 1 106.26 64.66
  Q 111.39 65.64 115.73 63.88
  A 1.31 1.14 -2.3 0 0 116.41 63.24
  Q 117.00 61.91 115.64 62.16
  Q 115.18 62.25 114.58 62.67
  Q 108.95 66.59 104.88 60.41
  A 1.39 1.15 70.5 0 0 103.83 59.78
  L 94.99 59.71
  A 0.35 0.35 77.1 0 0 94.68 60.21
  Q 95.34 61.64 97.28 62.61
  Q 99.22 63.58 98.24 65.51"
/>
<path stroke="#83d4e4" vector-effect="non-scaling-stroke" d="
  M 113.46 103.25
  Q 118.81 103.17 124.16 103.18
  Q 124.80 103.19 125.11 102.89
  Q 125.58 102.44 125.39 101.78
  A 0.68 0.63 -9.6 0 0 124.70 101.33
  L 112.79 102.23"
/>
<path stroke="#80dbee" vector-effect="non-scaling-stroke" d="
  M 112.79 102.23
  Q 116.02 96.00 122.55 92.78
  Q 124.68 91.73 123.00 91.20
  Q 122.54 91.06 121.85 91.07
  Q 101.53 91.39 79.66 91.24
  A 0.85 0.84 0.7 0 0 78.80 92.07
  L 78.76 108.61
  Q 78.75 110.37 79.75 108.91
  Q 82.29 105.18 86.15 103.79
  Q 87.34 103.36 93.90 102.39
  Q 98.39 101.72 103.06 101.22
  A 0.89 0.88 -7.5 0 1 104.03 101.96
  Q 104.23 103.17 104.55 104.48
  Q 104.81 105.52 104.54 106.01
  Q 104.08 106.85 102.73 106.50
  Q 101.31 106.12 101.76 107.52
  Q 103.42 112.77 107.81 116.04
  Q 108.28 116.39 108.46 116.69
  Q 108.98 117.53 108.03 117.71
  Q 107.59 117.79 106.99 117.60
  Q 100.12 115.45 97.19 108.81
  Q 96.11 106.37 95.75 109.00
  L 94.61 117.31
  A 0.75 0.64 -89.9 0 1 94.07 117.94
  L 87.55 119.08
  A 1.82 1.72 80.7 0 1 85.55 117.55
  Q 85.17 115.16 83.57 115.04
  Q 82.93 114.99 80.92 115.27
  Q 78.46 115.61 78.64 118.39
  Q 78.75 120.01 78.75 120.12
  Q 78.71 130.15 78.81 140.19
  A 0.69 0.68 -82.2 0 0 79.30 140.85
  Q 80.88 141.29 82.46 140.84
  A 0.74 0.69 85.2 0 0 82.97 140.19
  Q 83.36 135.31 85.40 129.91
  A 2.07 2.06 44.0 0 0 85.37 128.38
  Q 82.59 121.99 88.25 120.00
  Q 89.53 119.55 92.74 119.35
  Q 95.55 119.18 96.95 120.37
  Q 99.42 122.46 98.67 126.91
  A 1.19 1.18 -58.7 0 0 98.89 127.83
  Q 103.46 133.93 104.97 140.37
  A 0.82 0.81 83.2 0 0 105.76 141.00
  L 124.82 141.00
  A 0.68 0.68 0.0 0 0 125.50 140.32
  L 125.50 107.48
  A 0.63 0.62 -84.5 0 0 125.00 106.86
  Q 119.67 105.72 114.94 104.31
  Q 113.68 103.94 113.46 103.25"
/>
<path stroke="#06b2d7" vector-effect="non-scaling-stroke" d="
  M 112.79 102.23
  L 113.46 103.25"
/>
<path stroke="#82dbed" vector-effect="non-scaling-stroke" d="
  M 137.07 135.68
  Q 137.83 134.52 138.17 133.16
  Q 142.03 117.39 144.43 101.87
  Q 144.81 99.38 146.13 97.08
  Q 147.62 94.46 148.97 91.76
  A 0.32 0.32 -76.4 0 0 148.69 91.30
  L 133.17 91.25
  A 0.67 0.67 90.0 0 0 132.50 91.92
  L 132.50 135.11
  A 0.83 0.83 7.2 0 0 133.12 135.91
  Q 136.39 136.72 137.07 135.68"
/>
<path stroke="#80dbee" vector-effect="non-scaling-stroke" d="
  M 162.66 91.31
  Q 160.74 91.21 158.82 91.21
  Q 154.44 91.20 153.68 91.38
  Q 151.72 91.82 150.45 93.43
  Q 149.63 94.46 149.04 96.79
  Q 144.31 115.24 141.02 134.00
  Q 140.41 137.47 143.94 137.10
  Q 146.60 136.83 147.42 138.83
  Q 148.01 140.28 148.34 140.60
  Q 149.72 141.93 150.75 140.00
  Q 151.42 138.73 152.29 138.21
  A 1.14 0.86 -15.3 0 0 152.83 137.51
  Q 154.10 129.37 156.31 124.06
  Q 158.92 117.80 164.94 113.44
  Q 166.27 112.47 167.24 110.80
  Q 167.71 109.99 169.15 107.96
  Q 171.23 105.05 170.25 100.50
  Q 169.15 95.36 166.08 92.59
  Q 164.79 91.43 162.66 91.31"
/>
<path stroke="#85d9eb" vector-effect="non-scaling-stroke" d="
  M 173.83 108.82
  A 2.47 2.35 -71.7 0 1 174.85 110.98
  L 173.52 130.50
  A 1.08 0.92 24.9 0 0 173.90 131.32
  Q 177.34 134.21 176.81 139.31
  Q 176.54 141.92 178.58 140.76
  A 0.92 0.85 76.9 0 0 179.01 140.00
  Q 179.58 115.90 178.95 91.81
  A 0.52 0.52 89.4 0 0 178.43 91.30
  L 169.05 91.30
  Q 168.04 91.30 168.63 92.13
  Q 173.17 98.54 172.76 105.99
  Q 172.64 108.01 173.83 108.82"
/>
<path stroke="#83d4e4" vector-effect="non-scaling-stroke" d="
  M 125.2912 96.0328
  A 0.88 0.88 0.0 0 0 124.1414 95.5565
  L 114.2744 99.6436
  A 0.88 0.88 0.0 0 0 113.7982 100.7933
  L 113.8288 100.8672
  A 0.88 0.88 0.0 0 0 114.9786 101.3435
  L 124.8456 97.2564
  A 0.88 0.88 0.0 0 0 125.3218 96.1067
  L 125.2912 96.0328"
/>
<path stroke="#85d9eb" vector-effect="non-scaling-stroke" d="
  M 173.60 137.48
  A 3.57 3.57 0.0 0 0 170.03 133.91
  A 3.57 3.57 0.0 0 0 166.46 137.48
  A 3.57 3.57 0.0 0 0 170.03 141.05
  A 3.57 3.57 0.0 0 0 173.60 137.48"
/>
<path stroke="#83d4e4" vector-effect="non-scaling-stroke" d="
  M 214.0679 149.8000
  A 1.18 0.93 90.1 0 0 215.0000 148.6216
  A 1.18 0.93 90.1 0 0 214.0721 147.4400
  A 1.18 0.93 90.1 0 0 213.1400 148.6184
  A 1.18 0.93 90.1 0 0 214.0679 149.8000"
/>
<path stroke="#83d4e4" vector-effect="non-scaling-stroke" d="
  M 172.86 157.28
  Q 175.50 153.61 178.46 150.20
  Q 178.73 149.89 178.73 149.59
  Q 178.73 149.05 178.22 149.02
  Q 177.88 149.00 177.50 149.34
  Q 171.09 154.98 169.69 157.69
  Q 168.00 160.94 170.76 160.30
  Q 172.19 159.97 172.78 159.97
  Q 180.08 160.04 178.82 167.36
  Q 178.45 169.52 176.27 169.75
  Q 171.58 170.25 166.91 169.92
  Q 164.51 169.75 163.43 168.67
  Q 161.97 167.20 162.20 164.75
  Q 162.54 160.94 162.51 157.11
  Q 162.50 156.34 162.29 155.93
  Q 161.82 155.01 160.88 155.68
  A 1.46 0.72 -87.7 0 0 160.43 156.50
  Q 160.12 157.81 158.50 157.25
  Q 153.89 155.66 151.46 159.90
  Q 149.27 163.73 150.91 167.13
  Q 152.03 169.44 154.11 170.36
  Q 156.45 171.40 159.09 170.07
  Q 159.15 170.04 159.99 169.49
  Q 161.19 168.69 161.82 169.90
  Q 162.61 171.43 164.32 171.66
  Q 167.53 172.08 170.59 172.04
  Q 170.73 172.04 173.40 172.09
  Q 176.31 172.14 178.47 171.05
  Q 181.26 169.64 181.25 166.52
  Q 181.23 158.00 173.06 157.70
  Q 172.57 157.68 172.86 157.28"
/>
<path stroke="#83d4e4" vector-effect="non-scaling-stroke" d="
  M 58.85 157.29
  L 64.36 150.32
  A 0.95 0.54 -46.2 0 0 64.58 149.46
  Q 64.41 149.17 63.99 149.21
  Q 63.64 149.24 63.24 149.60
  Q 58.98 153.42 55.55 157.79
  Q 53.18 160.82 56.99 160.25
  Q 65.08 159.04 64.88 166.15
  Q 64.83 168.04 63.79 169.02
  Q 62.53 170.22 60.58 170.10
  Q 59.00 170.01 58.93 170.01
  Q 52.91 170.07 51.31 169.94
  Q 47.64 169.65 47.50 165.50
  Q 47.26 158.10 47.31 150.70
  A 0.66 0.59 -85.3 0 0 46.83 150.06
  Q 44.98 149.73 45.25 152.25
  Q 45.63 155.86 45.12 168.78
  Q 44.98 172.54 43.56 174.34
  Q 40.74 177.93 35.44 175.81
  Q 31.35 174.18 31.56 169.31
  Q 31.62 168.02 32.54 165.04
  A 0.65 0.55 -69.8 0 0 32.27 164.29
  Q 31.53 163.95 31.06 164.81
  Q 28.28 169.99 30.75 174.18
  Q 32.65 177.41 36.40 178.32
  Q 40.29 179.26 43.94 176.94
  Q 46.55 175.27 47.17 171.74
  A 0.51 0.49 -80.1 0 1 47.74 171.33
  Q 52.35 172.08 57.01 172.09
  Q 61.95 172.09 63.45 171.66
  Q 67.58 170.47 67.25 165.25
  Q 66.78 157.74 59.07 157.68
  Q 58.54 157.68 58.85 157.29"
/>
<path stroke="#83d4e4" vector-effect="non-scaling-stroke" d="
  M 156.74 150.73
  A 1.27 1.27 0.0 0 0 155.47 149.46
  A 1.27 1.27 0.0 0 0 154.20 150.73
  A 1.27 1.27 0.0 0 0 155.47 152.00
  A 1.27 1.27 0.0 0 0 156.74 150.73"
/>
<path stroke="#83d4e4" vector-effect="non-scaling-stroke" d="
  M 160.77 150.75
  A 1.27 1.27 0.0 0 0 159.50 149.48
  A 1.27 1.27 0.0 0 0 158.23 150.75
  A 1.27 1.27 0.0 0 0 159.50 152.02
  A 1.27 1.27 0.0 0 0 160.77 150.75"
/>
<path stroke="#83d4e4" vector-effect="non-scaling-stroke" d="
  M 91.37 151.02
  A 1.22 1.22 0.0 0 0 90.15 149.80
  A 1.22 1.22 0.0 0 0 88.93 151.02
  A 1.22 1.22 0.0 0 0 90.15 152.24
  A 1.22 1.22 0.0 0 0 91.37 151.02"
/>
<path stroke="#83d4e4" vector-effect="non-scaling-stroke" d="
  M 95.36 151.06
  A 1.20 1.20 0.0 0 0 94.16 149.86
  A 1.20 1.20 0.0 0 0 92.96 151.06
  A 1.20 1.20 0.0 0 0 94.16 152.26
  A 1.20 1.20 0.0 0 0 95.36 151.06"
/>
<path stroke="#88d5e4" vector-effect="non-scaling-stroke" d="
  M 84.06 167.89
  Q 84.06 165.84 83.74 162.00
  Q 83.42 158.24 80.50 157.25
  Q 74.96 155.38 72.57 159.28
  Q 70.72 162.30 71.43 166.09
  Q 72.51 171.85 79.99 172.01
  Q 82.11 172.05 80.95 173.82
  Q 78.36 177.79 73.96 176.18
  A 1.14 0.82 33.2 0 0 73.05 176.22
  Q 72.37 176.66 72.85 177.32
  Q 73.14 177.73 73.81 177.94
  Q 80.83 180.09 83.79 172.74
  A 1.27 1.26 14.2 0 1 85.11 171.96
  Q 89.41 172.43 92.59 170.29
  A 0.75 0.75 44.1 0 1 93.42 170.28
  Q 99.00 173.92 104.59 170.27
  A 0.64 0.63 50.0 0 1 105.36 170.34
  Q 110.23 174.83 115.20 170.40
  A 0.62 0.62 41.2 0 1 115.96 170.35
  Q 117.95 171.67 120.75 172.00
  Q 125.11 172.51 127.29 169.97
  Q 128.76 168.26 128.87 164.14
  Q 129.00 159.51 129.00 151.50
  Q 129.00 148.84 127.37 150.17
  A 1.18 1.02 74.2 0 0 126.98 151.00
  L 126.50 166.81
  Q 126.44 169.01 124.33 169.56
  Q 117.33 171.39 116.70 165.68
  Q 116.21 161.25 116.13 161.02
  Q 114.50 156.32 109.62 156.95
  Q 106.84 157.30 105.21 159.44
  Q 103.37 161.87 103.75 164.75
  Q 104.26 168.64 101.00 169.75
  Q 97.14 171.07 94.62 168.08
  A 1.69 1.52 -70.3 0 1 94.26 167.20
  Q 93.87 163.11 93.98 159.00
  Q 94.05 156.37 92.61 157.65
  A 1.40 1.15 76.9 0 0 92.19 158.50
  Q 91.73 162.23 91.72 166.00
  Q 91.71 169.10 86.89 170.16
  Q 84.07 170.78 84.06 167.89"
/>
<path stroke="#88d5e4" vector-effect="non-scaling-stroke" d="
  M 137.50 150.96
  A 1.17 1.17 0.0 0 0 136.33 149.79
  L 136.27 149.79
  A 1.17 1.17 0.0 0 0 135.10 150.96
  L 135.10 171.04
  A 1.17 1.17 0.0 0 0 136.27 172.21
  L 136.33 172.21
  A 1.17 1.17 0.0 0 0 137.50 171.04
  L 137.50 150.96"
/>
<path stroke="#83d4e4" vector-effect="non-scaling-stroke" d="
  M 212.5970 153.3513
  A 1.24 1.02 72.3 0 0 213.1917 151.8599
  A 1.24 1.02 72.3 0 0 211.8430 150.9887
  A 1.24 1.02 72.3 0 0 211.2483 152.4801
  A 1.24 1.02 72.3 0 0 212.5970 153.3513"
/>
<path stroke="#83d4e4" vector-effect="non-scaling-stroke" d="
  M 216.7872 153.2488
  A 1.25 1.11 62.5 0 0 217.1946 151.6275
  A 1.25 1.11 62.5 0 0 215.6328 151.0312
  A 1.25 1.11 62.5 0 0 215.2254 152.6525
  A 1.25 1.11 62.5 0 0 216.7872 153.2488"
/>
<path stroke="#83d4e4" vector-effect="non-scaling-stroke" d="
  M 191.35 171.14
  Q 196.02 173.04 200.97 171.12
  A 1.88 1.19 -70.9 0 0 201.72 170.52
  Q 202.60 169.37 203.51 170.09
  Q 204.73 171.04 204.80 171.07
  Q 209.24 173.21 213.66 170.29
  A 0.85 0.85 42.9 0 1 214.54 170.26
  Q 220.58 173.60 224.48 170.33
  Q 226.23 168.86 226.57 165.91
  Q 227.01 162.07 226.62 158.20
  A 0.67 0.59 88.6 0 0 226.07 157.61
  Q 224.25 157.47 224.47 159.75
  Q 224.87 163.86 223.93 167.82
  A 1.50 1.36 79.8 0 1 223.43 168.62
  Q 219.96 171.28 217.13 169.09
  Q 215.53 167.85 215.32 165.17
  Q 215.13 162.84 215.24 160.50
  Q 215.36 157.73 213.68 159.21
  A 1.43 1.25 76.2 0 0 213.24 160.06
  Q 212.82 163.14 212.85 166.25
  Q 212.89 169.30 209.81 169.81
  Q 206.61 170.35 204.65 168.31
  A 1.48 1.23 -73.5 0 1 204.27 167.43
  Q 204.02 164.59 204.07 161.75
  Q 204.11 159.18 202.46 160.27
  A 1.07 0.91 -18.1 0 0 201.98 161.05
  L 201.75 166.02
  Q 201.60 169.27 198.85 169.83
  Q 195.86 170.44 193.39 169.69
  Q 190.77 168.89 190.75 166.09
  L 190.70 158.06
  A 0.87 0.67 -82.0 0 0 190.26 157.29
  Q 189.64 157.06 189.12 157.78
  A 3.65 3.63 -28.2 0 0 188.43 160.03
  Q 188.61 165.78 188.37 170.19
  Q 188.19 173.49 187.04 174.90
  Q 185.19 177.19 181.52 176.19
  Q 178.80 175.44 180.04 177.52
  A 1.34 1.25 -6.5 0 0 180.80 178.08
  Q 188.72 180.20 190.67 171.50
  A 0.51 0.50 -72.8 0 1 191.35 171.14"
/>
<path stroke="#83d4e4" vector-effect="non-scaling-stroke" d="
  M 100.66 193.00
  Q 100.09 192.82 99.69 191.77
  Q 99.32 190.79 98.66 191.60
  Q 96.42 194.38 95.25 192.00
  Q 94.73 190.93 94.98 185.98
  Q 95.00 185.44 94.84 185.06
  Q 94.36 183.96 93.75 184.82
  Q 93.50 185.18 93.51 185.76
  Q 93.54 188.63 93.63 191.50
  Q 93.75 195.77 98.83 194.46
  A 1.52 1.50 51.6 0 1 99.96 194.60
  Q 101.11 195.25 102.78 194.68
  A 0.94 0.83 52.3 0 1 103.61 194.84
  Q 104.77 195.73 106.95 195.03
  Q 107.45 194.87 107.96 194.91
  Q 109.82 195.07 110.84 194.47
  Q 111.72 193.96 111.88 192.16
  Q 112.30 187.65 112.00 185.50
  Q 111.80 184.03 111.09 184.64
  A 1.20 0.86 76.1 0 0 110.75 185.49
  Q 110.75 187.87 110.74 190.25
  Q 110.73 195.23 107.08 191.90
  Q 105.06 190.06 102.63 192.50
  A 1.99 1.97 -59.0 0 1 100.66 193.00"
/>
<path stroke="#83d4e4" vector-effect="non-scaling-stroke" d="
  M 154.18 192.22
  Q 153.47 190.03 152.25 192.00
  Q 150.32 195.11 149.25 191.00
  Q 148.56 188.37 145.65 189.76
  A 0.71 0.63 76.8 0 1 144.74 189.12
  L 144.52 185.18
  A 0.52 0.49 2.1 0 0 144.06 184.71
  Q 143.85 184.68 143.67 184.74
  A 0.96 0.64 89.6 0 0 143.18 185.49
  Q 142.84 187.98 142.95 190.50
  Q 143.11 194.20 140.63 192.60
  Q 140.38 192.44 139.65 191.64
  Q 138.68 190.59 137.99 192.10
  A 1.58 0.80 -77.9 0 1 137.39 192.84
  Q 136.60 193.24 135.89 192.80
  A 0.58 0.48 -60.3 0 1 135.76 192.07
  Q 136.86 190.03 134.81 189.19
  Q 132.60 188.27 131.99 190.42
  Q 131.97 190.46 131.81 192.22
  Q 131.65 194.00 130.00 193.66
  Q 128.59 193.36 127.15 193.33
  Q 124.29 193.27 124.45 191.36
  Q 124.49 190.87 124.41 190.66
  Q 124.17 190.02 123.65 190.31
  Q 123.31 190.49 123.19 190.97
  Q 122.71 192.78 123.76 194.29
  A 1.36 1.20 -7.9 0 0 124.54 194.81
  Q 128.92 195.87 133.27 194.64
  A 1.97 1.75 41.7 0 1 134.24 194.64
  Q 136.38 195.19 138.53 194.64
  Q 139.01 194.51 139.49 194.61
  Q 141.81 195.08 144.14 194.96
  Q 148.40 194.73 148.75 194.73
  Q 152.75 194.77 156.75 194.58
  Q 157.34 194.55 159.69 194.89
  Q 161.27 195.12 162.75 194.42
  A 1.03 0.93 83.8 0 0 163.28 193.69
  Q 164.04 189.48 163.56 185.24
  A 0.86 0.66 -88.6 0 0 163.05 184.54
  Q 162.36 184.36 162.00 185.25
  Q 161.49 186.49 162.00 190.00
  Q 162.63 194.38 159.62 192.55
  Q 159.33 192.38 158.64 191.69
  Q 157.63 190.67 157.10 191.97
  A 1.60 0.72 -77.8 0 1 156.54 192.73
  Q 155.71 193.23 154.77 192.90
  A 1.13 0.85 86.2 0 1 154.18 192.22"
/>
<path stroke="#83d4e4" vector-effect="non-scaling-stroke" d="
  M 79.86 194.95
  A 1.61 1.60 -86.2 0 1 78.55 193.44
  Q 78.39 190.25 77.40 191.42
  Q 76.98 191.91 76.93 192.70
  Q 76.68 196.55 80.25 197.00
  Q 83.85 197.46 84.75 193.50
  Q 85.18 191.59 85.02 186.55
  Q 85.00 185.95 84.78 185.50
  Q 83.94 183.80 83.39 185.68
  Q 83.25 186.18 83.29 186.83
  Q 83.63 191.91 83.25 193.00
  Q 82.40 195.41 79.86 194.95"
/>
<path stroke="#83d4e4" vector-effect="non-scaling-stroke" d="
  M 115.9283 185.3802
  A 0.63 0.63 0.0 0 0 115.2885 184.7602
  L 115.2285 184.7611
  A 0.63 0.63 0.0 0 0 114.6085 185.4009
  L 114.7517 194.5198
  A 0.63 0.63 0.0 0 0 115.3915 195.1398
  L 115.4515 195.1389
  A 0.63 0.63 0.0 0 0 116.0715 194.4991
  L 115.9283 185.3802"
/>
<path stroke="#85d9eb" vector-effect="non-scaling-stroke" d="
  M 148.0922 187.3731
  A 1.01 0.88 63.4 0 0 148.4269 186.0760
  A 1.01 0.88 63.4 0 0 147.1878 185.5669
  A 1.01 0.88 63.4 0 0 146.8531 186.8640
  A 1.01 0.88 63.4 0 0 148.0922 187.3731"
/>
<path stroke="#83d4e4" vector-effect="non-scaling-stroke" d="
  M 134.59 186.75
  A 0.81 0.81 0.0 0 0 133.78 185.94
  A 0.81 0.81 0.0 0 0 132.97 186.75
  A 0.81 0.81 0.0 0 0 133.78 187.56
  A 0.81 0.81 0.0 0 0 134.59 186.75"
/>
<path stroke="#85d9eb" vector-effect="non-scaling-stroke" d="
  M 91.4745 187.8286
  A 1.05 0.86 25.9 0 0 90.9056 186.5964
  A 1.05 0.86 25.9 0 0 89.5855 186.9114
  A 1.05 0.86 25.9 0 0 90.1544 188.1436
  A 1.05 0.86 25.9 0 0 91.4745 187.8286"
/>
<path stroke="#83d4e4" vector-effect="non-scaling-stroke" d="
  M 99.8256 188.1769
  A 0.93 0.70 -10.1 0 0 98.7872 187.6508
  A 0.93 0.70 -10.1 0 0 97.9944 188.5031
  A 0.93 0.70 -10.1 0 0 99.0328 189.0292
  A 0.93 0.70 -10.1 0 0 99.8256 188.1769"
/>
<path stroke="#88d5e4" vector-effect="non-scaling-stroke" d="
  M 154.0588 188.4984
  A 0.99 0.85 2.8 0 0 153.1115 187.6010
  A 0.99 0.85 2.8 0 0 152.0812 188.4016
  A 0.99 0.85 2.8 0 0 153.0285 189.2990
  A 0.99 0.85 2.8 0 0 154.0588 188.4984"
/>
<path stroke="#85d9eb" vector-effect="non-scaling-stroke" d="
  M 160.1130 188.3178
  A 0.30 0.30 0.0 0 0 159.8156 188.0152
  L 156.3357 187.9848
  A 0.30 0.30 0.0 0 0 156.0331 188.2822
  L 156.0270 188.9822
  A 0.30 0.30 0.0 0 0 156.3244 189.2848
  L 159.8043 189.3152
  A 0.30 0.30 0.0 0 0 160.1069 189.0178
  L 160.1130 188.3178"
/>
<path stroke="#83d4e4" vector-effect="non-scaling-stroke" d="
  M 89.86 193.86
  Q 88.81 195.73 86.78 196.62
  A 1.37 0.89 -10.2 0 0 86.10 197.26
  Q 85.66 198.39 87.25 198.00
  Q 92.11 196.80 91.77 191.07
  Q 91.69 189.72 90.85 190.16
  A 1.11 0.87 85.0 0 0 90.35 190.92
  Q 90.22 191.67 90.19 192.44
  Q 90.16 193.32 89.86 193.86"
/>
<path stroke="#88d5e4" vector-effect="non-scaling-stroke" d="
  M 137.63 197.14
  Q 136.72 197.12 137.04 198.04
  A 0.54 0.48 -19.5 0 0 137.71 198.31
  Q 138.96 197.89 140.13 198.45
  A 0.41 0.37 18.2 0 0 140.70 198.20
  Q 140.99 196.66 138.50 197.10
  Q 138.21 197.15 137.63 197.14"
/>
<path stroke="#75dcef" vector-effect="non-scaling-stroke" d="
  M 117.89 40.74
  A 2.93 2.93 0.0 0 0 114.96 37.81
  A 2.93 2.93 0.0 0 0 112.03 40.74
  A 2.93 2.93 0.0 0 0 114.96 43.67
  A 2.93 2.93 0.0 0 0 117.89 40.74"
/>
<path stroke="#82dbed" vector-effect="non-scaling-stroke" d="
  M 109.48 47.56
  A 3.35 3.35 0.0 0 0 106.13 44.21
  A 3.35 3.35 0.0 0 0 102.78 47.56
  A 3.35 3.35 0.0 0 0 106.13 50.91
  A 3.35 3.35 0.0 0 0 109.48 47.56"
/>
<path stroke="#75dcef" vector-effect="non-scaling-stroke" d="
  M 145.73 43.26
  Q 142.99 41.95 142.77 39.55
  A 0.48 0.31 87.8 0 0 142.48 39.13
  Q 142.30 39.11 142.14 39.29
  Q 142.01 39.44 141.99 39.76
  Q 141.80 42.38 139.34 43.30
  Q 137.96 43.82 139.42 44.06
  Q 142.10 44.49 142.18 47.18
  Q 142.21 47.91 142.42 47.95
  A 0.63 0.28 -81.7 0 0 142.79 47.36
  Q 143.12 45.07 145.74 43.71
  Q 146.19 43.47 145.73 43.26"
/>
<path stroke="#75dcef" vector-effect="non-scaling-stroke" d="
  M 158.05 50.18
  A 0.35 0.35 -0.1 0 1 157.81 49.94
  L 156.70 45.98
  A 0.35 0.35 44.8 0 0 156.03 45.98
  L 154.92 49.94
  A 0.35 0.35 89.6 0 1 154.68 50.18
  L 150.73 51.30
  A 0.35 0.35 0.0 0 0 150.73 51.97
  L 154.68 53.07
  A 0.35 0.35 89.9 0 1 154.92 53.31
  L 156.04 57.26
  A 0.35 0.35 46.5 0 0 156.71 57.26
  L 157.82 53.31
  A 0.35 0.35 0.0 0 1 158.06 53.07
  L 162.01 51.95
  A 0.35 0.35 0.0 0 0 162.01 51.28
  L 158.05 50.18"
/>
<path stroke="#78daed" vector-effect="non-scaling-stroke" d="
  M 102.90 67.11
  A 1.58 1.58 0.0 0 0 101.32 65.53
  A 1.58 1.58 0.0 0 0 99.74 67.11
  A 1.58 1.58 0.0 0 0 101.32 68.69
  A 1.58 1.58 0.0 0 0 102.90 67.11"
/>
<path stroke="#83d4e4" vector-effect="non-scaling-stroke" d="
  M 160.2622 162.5736
  A 3.55 3.55 0.0 0 0 156.7434 158.9927
  L 156.1634 158.9877
  A 3.55 3.55 0.0 0 0 152.5825 162.5065
  L 152.5578 165.3464
  A 3.55 3.55 0.0 0 0 156.0766 168.9273
  L 156.6566 168.9323
  A 3.55 3.55 0.0 0 0 160.2375 165.4135
  L 160.2622 162.5736"
/>
<path stroke="#88d5e4" vector-effect="non-scaling-stroke" d="
  M 79.39 159.22
  Q 77.13 158.43 75.52 159.49
  Q 74.24 160.33 73.74 162.45
  Q 72.04 169.60 80.55 169.76
  A 0.94 0.89 -0.6 0 0 81.50 168.84
  L 81.29 161.64
  Q 81.23 159.86 79.39 159.22"
/>
<path stroke="#88d5e4" vector-effect="non-scaling-stroke" d="
  M 110.2292 170.5100
  A 5.95 4.21 90.2 0 0 114.4600 164.5747
  A 5.95 4.21 90.2 0 0 110.2708 158.6100
  A 5.95 4.21 90.2 0 0 106.0400 164.5453
  A 5.95 4.21 90.2 0 0 110.2292 170.5100"
/>
<path stroke="#76d5e6" vector-effect="non-scaling-stroke" d="
  M 105.9591 193.5745
  A 0.82 0.74 20.3 0 0 105.4467 192.5960
  A 0.82 0.74 20.3 0 0 104.4209 193.0055
  A 0.82 0.74 20.3 0 0 104.9333 193.9840
  A 0.82 0.74 20.3 0 0 105.9591 193.5745"
/>
<path stroke="#76d5e6" vector-effect="non-scaling-stroke" d="
  M 134.76 191.57
  A 0.86 0.86 0.0 0 0 133.90 190.71
  A 0.86 0.86 0.0 0 0 133.04 191.57
  A 0.86 0.86 0.0 0 0 133.90 192.43
  A 0.86 0.86 0.0 0 0 134.76 191.57"
/>
<path stroke="#76d5e6" vector-effect="non-scaling-stroke" d="
  M 147.7803 191.4307
  A 1.82 0.87 -20.9 0 0 145.7696 191.2672
  A 1.82 0.87 -20.9 0 0 144.3797 192.7293
  A 1.82 0.87 -20.9 0 0 146.3904 192.8928
  A 1.82 0.87 -20.9 0 0 147.7803 191.4307"
/>
</g>
<path fill="#fdfdfb" d="
  M 0.00 0.00
  L 255.00 0.00
  L 255.00 255.00
  L 0.00 255.00
  L 0.00 0.00
  Z
  M 78.70 75.31
  L 78.74 83.30
  A 0.71 0.69 89.6 0 0 79.43 84.00
  L 85.61 84.00
  A 0.92 0.91 89.4 0 0 86.52 83.06
  L 86.25 61.24
  A 1.94 1.89 -10.6 0 1 87.53 59.42
  Q 90.07 58.50 89.11 57.12
  Q 88.30 55.95 87.91 54.58
  Q 86.82 50.81 89.59 50.28
  Q 91.59 49.90 93.42 50.80
  Q 98.57 53.36 103.66 57.67
  A 0.56 0.56 27.8 0 0 104.57 57.39
  Q 105.32 54.70 107.07 53.34
  Q 108.78 52.01 111.31 52.34
  Q 116.46 53.02 116.51 59.78
  A 1.56 1.56 8.6 0 0 117.61 61.27
  Q 120.15 62.06 119.44 65.07
  Q 119.13 66.37 119.12 66.43
  Q 117.62 74.59 116.19 83.10
  A 0.80 0.75 3.5 0 0 117.01 83.97
  L 124.74 83.75
  A 0.53 0.49 -1.2 0 0 125.25 83.26
  L 125.25 24.23
  Q 125.25 23.35 124.52 23.84
  L 66.96 62.86
  A 2.13 1.95 -18.9 0 0 66.04 64.55
  L 66.15 74.06
  A 0.55 0.53 0.0 0 0 66.69 74.58
  L 78.19 74.81
  A 0.52 0.50 0.6 0 1 78.70 75.31
  Z
  M 137.77 72.88
  Q 157.58 64.70 177.71 57.36
  Q 178.22 57.17 178.63 56.93
  Q 181.34 55.29 178.47 55.68
  Q 178.03 55.74 177.55 55.92
  Q 157.30 63.48 137.27 71.63
  A 1.29 0.97 -37.9 0 1 136.34 71.65
  Q 135.41 71.24 135.90 70.37
  Q 136.18 69.87 136.95 69.56
  Q 156.56 61.71 176.07 53.98
  Q 177.23 53.52 176.20 52.82
  L 133.77 24.03
  Q 132.77 23.35 132.74 24.55
  Q 132.09 53.73 132.80 83.20
  A 0.51 0.50 -0.6 0 0 133.31 83.69
  L 163.82 83.81
  A 0.47 0.46 -2.2 0 0 164.29 83.31
  Q 164.08 79.86 161.02 78.39
  A 0.69 0.68 -74.1 0 1 160.64 77.70
  Q 160.81 76.15 159.99 74.96
  A 1.14 1.00 -12.0 0 0 159.19 74.51
  Q 152.12 73.76 145.00 73.79
  Q 141.95 73.81 139.06 74.73
  Q 138.27 74.98 137.79 74.89
  Q 136.65 74.69 137.10 73.51
  A 1.26 1.02 -4.2 0 1 137.77 72.88
  Z
  M 99.49 56.81
  Q 95.99 53.75 91.94 52.22
  Q 90.11 51.53 89.75 53.45
  Q 89.31 55.85 91.90 57.67
  A 1.53 1.42 -27.0 0 0 92.81 57.93
  L 99.17 57.71
  Q 100.47 57.67 99.49 56.81
  Z
  M 167.56 75.71
  Q 166.05 79.62 168.46 83.10
  A 1.03 0.98 73.0 0 0 169.24 83.54
  L 178.31 83.82
  A 0.58 0.53 2.6 0 0 178.91 83.32
  L 179.22 76.55
  Q 179.31 74.53 181.23 74.56
  L 191.10 74.72
  A 0.93 0.88 -89.4 0 0 192.00 73.79
  L 192.00 64.86
  A 2.17 1.88 -75.3 0 0 191.15 63.14
  L 183.43 57.99
  A 1.15 0.95 -33.3 0 0 182.52 57.89
  Q 178.67 59.05 175.87 61.73
  Q 172.03 65.42 171.63 65.76
  Q 168.28 68.65 165.78 72.34
  A 0.74 0.59 -50.1 0 0 165.76 73.17
  L 167.36 74.94
  A 0.84 0.64 38.3 0 1 167.56 75.71
  Z
  M 98.24 65.51
  Q 97.18 67.59 98.92 69.21
  Q 100.22 70.41 102.01 70.21
  Q 105.22 69.86 104.78 66.03
  A 1.25 1.25 -87.8 0 1 106.26 64.66
  Q 111.39 65.64 115.73 63.88
  A 1.31 1.14 -2.3 0 0 116.41 63.24
  Q 117.00 61.91 115.64 62.16
  Q 115.18 62.25 114.58 62.67
  Q 108.95 66.59 104.88 60.41
  A 1.39 1.15 70.5 0 0 103.83 59.78
  L 94.99 59.71
  A 0.35 0.35 77.1 0 0 94.68 60.21
  Q 95.34 61.64 97.28 62.61
  Q 99.22 63.58 98.24 65.51
  Z
  M 113.46 103.25
  Q 118.81 103.17 124.16 103.18
  Q 124.80 103.19 125.11 102.89
  Q 125.58 102.44 125.39 101.78
  A 0.68 0.63 -9.6 0 0 124.70 101.33
  L 112.79 102.23
  Q 116.02 96.00 122.55 92.78
  Q 124.68 91.73 123.00 91.20
  Q 122.54 91.06 121.85 91.07
  Q 101.53 91.39 79.66 91.24
  A 0.85 0.84 0.7 0 0 78.80 92.07
  L 78.76 108.61
  Q 78.75 110.37 79.75 108.91
  Q 82.29 105.18 86.15 103.79
  Q 87.34 103.36 93.90 102.39
  Q 98.39 101.72 103.06 101.22
  A 0.89 0.88 -7.5 0 1 104.03 101.96
  Q 104.23 103.17 104.55 104.48
  Q 104.81 105.52 104.54 106.01
  Q 104.08 106.85 102.73 106.50
  Q 101.31 106.12 101.76 107.52
  Q 103.42 112.77 107.81 116.04
  Q 108.28 116.39 108.46 116.69
  Q 108.98 117.53 108.03 117.71
  Q 107.59 117.79 106.99 117.60
  Q 100.12 115.45 97.19 108.81
  Q 96.11 106.37 95.75 109.00
  L 94.61 117.31
  A 0.75 0.64 -89.9 0 1 94.07 117.94
  L 87.55 119.08
  A 1.82 1.72 80.7 0 1 85.55 117.55
  Q 85.17 115.16 83.57 115.04
  Q 82.93 114.99 80.92 115.27
  Q 78.46 115.61 78.64 118.39
  Q 78.75 120.01 78.75 120.12
  Q 78.71 130.15 78.81 140.19
  A 0.69 0.68 -82.2 0 0 79.30 140.85
  Q 80.88 141.29 82.46 140.84
  A 0.74 0.69 85.2 0 0 82.97 140.19
  Q 83.36 135.31 85.40 129.91
  A 2.07 2.06 44.0 0 0 85.37 128.38
  Q 82.59 121.99 88.25 120.00
  Q 89.53 119.55 92.74 119.35
  Q 95.55 119.18 96.95 120.37
  Q 99.42 122.46 98.67 126.91
  A 1.19 1.18 -58.7 0 0 98.89 127.83
  Q 103.46 133.93 104.97 140.37
  A 0.82 0.81 83.2 0 0 105.76 141.00
  L 124.82 141.00
  A 0.68 0.68 0.0 0 0 125.50 140.32
  L 125.50 107.48
  A 0.63 0.62 -84.5 0 0 125.00 106.86
  Q 119.67 105.72 114.94 104.31
  Q 113.68 103.94 113.46 103.25
  Z
  M 137.07 135.68
  Q 137.83 134.52 138.17 133.16
  Q 142.03 117.39 144.43 101.87
  Q 144.81 99.38 146.13 97.08
  Q 147.62 94.46 148.97 91.76
  A 0.32 0.32 -76.4 0 0 148.69 91.30
  L 133.17 91.25
  A 0.67 0.67 90.0 0 0 132.50 91.92
  L 132.50 135.11
  A 0.83 0.83 7.2 0 0 133.12 135.91
  Q 136.39 136.72 137.07 135.68
  Z
  M 162.66 91.31
  Q 160.74 91.21 158.82 91.21
  Q 154.44 91.20 153.68 91.38
  Q 151.72 91.82 150.45 93.43
  Q 149.63 94.46 149.04 96.79
  Q 144.31 115.24 141.02 134.00
  Q 140.41 137.47 143.94 137.10
  Q 146.60 136.83 147.42 138.83
  Q 148.01 140.28 148.34 140.60
  Q 149.72 141.93 150.75 140.00
  Q 151.42 138.73 152.29 138.21
  A 1.14 0.86 -15.3 0 0 152.83 137.51
  Q 154.10 129.37 156.31 124.06
  Q 158.92 117.80 164.94 113.44
  Q 166.27 112.47 167.24 110.80
  Q 167.71 109.99 169.15 107.96
  Q 171.23 105.05 170.25 100.50
  Q 169.15 95.36 166.08 92.59
  Q 164.79 91.43 162.66 91.31
  Z
  M 173.83 108.82
  A 2.47 2.35 -71.7 0 1 174.85 110.98
  L 173.52 130.50
  A 1.08 0.92 24.9 0 0 173.90 131.32
  Q 177.34 134.21 176.81 139.31
  Q 176.54 141.92 178.58 140.76
  A 0.92 0.85 76.9 0 0 179.01 140.00
  Q 179.58 115.90 178.95 91.81
  A 0.52 0.52 89.4 0 0 178.43 91.30
  L 169.05 91.30
  Q 168.04 91.30 168.63 92.13
  Q 173.17 98.54 172.76 105.99
  Q 172.64 108.01 173.83 108.82
  Z
  M 125.2912 96.0328
  A 0.88 0.88 0.0 0 0 124.1414 95.5565
  L 114.2744 99.6436
  A 0.88 0.88 0.0 0 0 113.7982 100.7933
  L 113.8288 100.8672
  A 0.88 0.88 0.0 0 0 114.9786 101.3435
  L 124.8456 97.2564
  A 0.88 0.88 0.0 0 0 125.3218 96.1067
  L 125.2912 96.0328
  Z
  M 173.60 137.48
  A 3.57 3.57 0.0 0 0 170.03 133.91
  A 3.57 3.57 0.0 0 0 166.46 137.48
  A 3.57 3.57 0.0 0 0 170.03 141.05
  A 3.57 3.57 0.0 0 0 173.60 137.48
  Z
  M 214.0679 149.8000
  A 1.18 0.93 90.1 0 0 215.0000 148.6216
  A 1.18 0.93 90.1 0 0 214.0721 147.4400
  A 1.18 0.93 90.1 0 0 213.1400 148.6184
  A 1.18 0.93 90.1 0 0 214.0679 149.8000
  Z
  M 172.86 157.28
  Q 175.50 153.61 178.46 150.20
  Q 178.73 149.89 178.73 149.59
  Q 178.73 149.05 178.22 149.02
  Q 177.88 149.00 177.50 149.34
  Q 171.09 154.98 169.69 157.69
  Q 168.00 160.94 170.76 160.30
  Q 172.19 159.97 172.78 159.97
  Q 180.08 160.04 178.82 167.36
  Q 178.45 169.52 176.27 169.75
  Q 171.58 170.25 166.91 169.92
  Q 164.51 169.75 163.43 168.67
  Q 161.97 167.20 162.20 164.75
  Q 162.54 160.94 162.51 157.11
  Q 162.50 156.34 162.29 155.93
  Q 161.82 155.01 160.88 155.68
  A 1.46 0.72 -87.7 0 0 160.43 156.50
  Q 160.12 157.81 158.50 157.25
  Q 153.89 155.66 151.46 159.90
  Q 149.27 163.73 150.91 167.13
  Q 152.03 169.44 154.11 170.36
  Q 156.45 171.40 159.09 170.07
  Q 159.15 170.04 159.99 169.49
  Q 161.19 168.69 161.82 169.90
  Q 162.61 171.43 164.32 171.66
  Q 167.53 172.08 170.59 172.04
  Q 170.73 172.04 173.40 172.09
  Q 176.31 172.14 178.47 171.05
  Q 181.26 169.64 181.25 166.52
  Q 181.23 158.00 173.06 157.70
  Q 172.57 157.68 172.86 157.28
  Z
  M 58.85 157.29
  L 64.36 150.32
  A 0.95 0.54 -46.2 0 0 64.58 149.46
  Q 64.41 149.17 63.99 149.21
  Q 63.64 149.24 63.24 149.60
  Q 58.98 153.42 55.55 157.79
  Q 53.18 160.82 56.99 160.25
  Q 65.08 159.04 64.88 166.15
  Q 64.83 168.04 63.79 169.02
  Q 62.53 170.22 60.58 170.10
  Q 59.00 170.01 58.93 170.01
  Q 52.91 170.07 51.31 169.94
  Q 47.64 169.65 47.50 165.50
  Q 47.26 158.10 47.31 150.70
  A 0.66 0.59 -85.3 0 0 46.83 150.06
  Q 44.98 149.73 45.25 152.25
  Q 45.63 155.86 45.12 168.78
  Q 44.98 172.54 43.56 174.34
  Q 40.74 177.93 35.44 175.81
  Q 31.35 174.18 31.56 169.31
  Q 31.62 168.02 32.54 165.04
  A 0.65 0.55 -69.8 0 0 32.27 164.29
  Q 31.53 163.95 31.06 164.81
  Q 28.28 169.99 30.75 174.18
  Q 32.65 177.41 36.40 178.32
  Q 40.29 179.26 43.94 176.94
  Q 46.55 175.27 47.17 171.74
  A 0.51 0.49 -80.1 0 1 47.74 171.33
  Q 52.35 172.08 57.01 172.09
  Q 61.95 172.09 63.45 171.66
  Q 67.58 170.47 67.25 165.25
  Q 66.78 157.74 59.07 157.68
  Q 58.54 157.68 58.85 157.29
  Z
  M 156.74 150.73
  A 1.27 1.27 0.0 0 0 155.47 149.46
  A 1.27 1.27 0.0 0 0 154.20 150.73
  A 1.27 1.27 0.0 0 0 155.47 152.00
  A 1.27 1.27 0.0 0 0 156.74 150.73
  Z
  M 160.77 150.75
  A 1.27 1.27 0.0 0 0 159.50 149.48
  A 1.27 1.27 0.0 0 0 158.23 150.75
  A 1.27 1.27 0.0 0 0 159.50 152.02
  A 1.27 1.27 0.0 0 0 160.77 150.75
  Z
  M 91.37 151.02
  A 1.22 1.22 0.0 0 0 90.15 149.80
  A 1.22 1.22 0.0 0 0 88.93 151.02
  A 1.22 1.22 0.0 0 0 90.15 152.24
  A 1.22 1.22 0.0 0 0 91.37 151.02
  Z
  M 95.36 151.06
  A 1.20 1.20 0.0 0 0 94.16 149.86
  A 1.20 1.20 0.0 0 0 92.96 151.06
  A 1.20 1.20 0.0 0 0 94.16 152.26
  A 1.20 1.20 0.0 0 0 95.36 151.06
  Z
  M 84.06 167.89
  Q 84.06 165.84 83.74 162.00
  Q 83.42 158.24 80.50 157.25
  Q 74.96 155.38 72.57 159.28
  Q 70.72 162.30 71.43 166.09
  Q 72.51 171.85 79.99 172.01
  Q 82.11 172.05 80.95 173.82
  Q 78.36 177.79 73.96 176.18
  A 1.14 0.82 33.2 0 0 73.05 176.22
  Q 72.37 176.66 72.85 177.32
  Q 73.14 177.73 73.81 177.94
  Q 80.83 180.09 83.79 172.74
  A 1.27 1.26 14.2 0 1 85.11 171.96
  Q 89.41 172.43 92.59 170.29
  A 0.75 0.75 44.1 0 1 93.42 170.28
  Q 99.00 173.92 104.59 170.27
  A 0.64 0.63 50.0 0 1 105.36 170.34
  Q 110.23 174.83 115.20 170.40
  A 0.62 0.62 41.2 0 1 115.96 170.35
  Q 117.95 171.67 120.75 172.00
  Q 125.11 172.51 127.29 169.97
  Q 128.76 168.26 128.87 164.14
  Q 129.00 159.51 129.00 151.50
  Q 129.00 148.84 127.37 150.17
  A 1.18 1.02 74.2 0 0 126.98 151.00
  L 126.50 166.81
  Q 126.44 169.01 124.33 169.56
  Q 117.33 171.39 116.70 165.68
  Q 116.21 161.25 116.13 161.02
  Q 114.50 156.32 109.62 156.95
  Q 106.84 157.30 105.21 159.44
  Q 103.37 161.87 103.75 164.75
  Q 104.26 168.64 101.00 169.75
  Q 97.14 171.07 94.62 168.08
  A 1.69 1.52 -70.3 0 1 94.26 167.20
  Q 93.87 163.11 93.98 159.00
  Q 94.05 156.37 92.61 157.65
  A 1.40 1.15 76.9 0 0 92.19 158.50
  Q 91.73 162.23 91.72 166.00
  Q 91.71 169.10 86.89 170.16
  Q 84.07 170.78 84.06 167.89
  Z
  M 137.50 150.96
  A 1.17 1.17 0.0 0 0 136.33 149.79
  L 136.27 149.79
  A 1.17 1.17 0.0 0 0 135.10 150.96
  L 135.10 171.04
  A 1.17 1.17 0.0 0 0 136.27 172.21
  L 136.33 172.21
  A 1.17 1.17 0.0 0 0 137.50 171.04
  L 137.50 150.96
  Z
  M 212.5970 153.3513
  A 1.24 1.02 72.3 0 0 213.1917 151.8599
  A 1.24 1.02 72.3 0 0 211.8430 150.9887
  A 1.24 1.02 72.3 0 0 211.2483 152.4801
  A 1.24 1.02 72.3 0 0 212.5970 153.3513
  Z
  M 216.7872 153.2488
  A 1.25 1.11 62.5 0 0 217.1946 151.6275
  A 1.25 1.11 62.5 0 0 215.6328 151.0312
  A 1.25 1.11 62.5 0 0 215.2254 152.6525
  A 1.25 1.11 62.5 0 0 216.7872 153.2488
  Z
  M 191.35 171.14
  Q 196.02 173.04 200.97 171.12
  A 1.88 1.19 -70.9 0 0 201.72 170.52
  Q 202.60 169.37 203.51 170.09
  Q 204.73 171.04 204.80 171.07
  Q 209.24 173.21 213.66 170.29
  A 0.85 0.85 42.9 0 1 214.54 170.26
  Q 220.58 173.60 224.48 170.33
  Q 226.23 168.86 226.57 165.91
  Q 227.01 162.07 226.62 158.20
  A 0.67 0.59 88.6 0 0 226.07 157.61
  Q 224.25 157.47 224.47 159.75
  Q 224.87 163.86 223.93 167.82
  A 1.50 1.36 79.8 0 1 223.43 168.62
  Q 219.96 171.28 217.13 169.09
  Q 215.53 167.85 215.32 165.17
  Q 215.13 162.84 215.24 160.50
  Q 215.36 157.73 213.68 159.21
  A 1.43 1.25 76.2 0 0 213.24 160.06
  Q 212.82 163.14 212.85 166.25
  Q 212.89 169.30 209.81 169.81
  Q 206.61 170.35 204.65 168.31
  A 1.48 1.23 -73.5 0 1 204.27 167.43
  Q 204.02 164.59 204.07 161.75
  Q 204.11 159.18 202.46 160.27
  A 1.07 0.91 -18.1 0 0 201.98 161.05
  L 201.75 166.02
  Q 201.60 169.27 198.85 169.83
  Q 195.86 170.44 193.39 169.69
  Q 190.77 168.89 190.75 166.09
  L 190.70 158.06
  A 0.87 0.67 -82.0 0 0 190.26 157.29
  Q 189.64 157.06 189.12 157.78
  A 3.65 3.63 -28.2 0 0 188.43 160.03
  Q 188.61 165.78 188.37 170.19
  Q 188.19 173.49 187.04 174.90
  Q 185.19 177.19 181.52 176.19
  Q 178.80 175.44 180.04 177.52
  A 1.34 1.25 -6.5 0 0 180.80 178.08
  Q 188.72 180.20 190.67 171.50
  A 0.51 0.50 -72.8 0 1 191.35 171.14
  Z
  M 100.66 193.00
  Q 100.09 192.82 99.69 191.77
  Q 99.32 190.79 98.66 191.60
  Q 96.42 194.38 95.25 192.00
  Q 94.73 190.93 94.98 185.98
  Q 95.00 185.44 94.84 185.06
  Q 94.36 183.96 93.75 184.82
  Q 93.50 185.18 93.51 185.76
  Q 93.54 188.63 93.63 191.50
  Q 93.75 195.77 98.83 194.46
  A 1.52 1.50 51.6 0 1 99.96 194.60
  Q 101.11 195.25 102.78 194.68
  A 0.94 0.83 52.3 0 1 103.61 194.84
  Q 104.77 195.73 106.95 195.03
  Q 107.45 194.87 107.96 194.91
  Q 109.82 195.07 110.84 194.47
  Q 111.72 193.96 111.88 192.16
  Q 112.30 187.65 112.00 185.50
  Q 111.80 184.03 111.09 184.64
  A 1.20 0.86 76.1 0 0 110.75 185.49
  Q 110.75 187.87 110.74 190.25
  Q 110.73 195.23 107.08 191.90
  Q 105.06 190.06 102.63 192.50
  A 1.99 1.97 -59.0 0 1 100.66 193.00
  Z
  M 154.18 192.22
  Q 153.47 190.03 152.25 192.00
  Q 150.32 195.11 149.25 191.00
  Q 148.56 188.37 145.65 189.76
  A 0.71 0.63 76.8 0 1 144.74 189.12
  L 144.52 185.18
  A 0.52 0.49 2.1 0 0 144.06 184.71
  Q 143.85 184.68 143.67 184.74
  A 0.96 0.64 89.6 0 0 143.18 185.49
  Q 142.84 187.98 142.95 190.50
  Q 143.11 194.20 140.63 192.60
  Q 140.38 192.44 139.65 191.64
  Q 138.68 190.59 137.99 192.10
  A 1.58 0.80 -77.9 0 1 137.39 192.84
  Q 136.60 193.24 135.89 192.80
  A 0.58 0.48 -60.3 0 1 135.76 192.07
  Q 136.86 190.03 134.81 189.19
  Q 132.60 188.27 131.99 190.42
  Q 131.97 190.46 131.81 192.22
  Q 131.65 194.00 130.00 193.66
  Q 128.59 193.36 127.15 193.33
  Q 124.29 193.27 124.45 191.36
  Q 124.49 190.87 124.41 190.66
  Q 124.17 190.02 123.65 190.31
  Q 123.31 190.49 123.19 190.97
  Q 122.71 192.78 123.76 194.29
  A 1.36 1.20 -7.9 0 0 124.54 194.81
  Q 128.92 195.87 133.27 194.64
  A 1.97 1.75 41.7 0 1 134.24 194.64
  Q 136.38 195.19 138.53 194.64
  Q 139.01 194.51 139.49 194.61
  Q 141.81 195.08 144.14 194.96
  Q 148.40 194.73 148.75 194.73
  Q 152.75 194.77 156.75 194.58
  Q 157.34 194.55 159.69 194.89
  Q 161.27 195.12 162.75 194.42
  A 1.03 0.93 83.8 0 0 163.28 193.69
  Q 164.04 189.48 163.56 185.24
  A 0.86 0.66 -88.6 0 0 163.05 184.54
  Q 162.36 184.36 162.00 185.25
  Q 161.49 186.49 162.00 190.00
  Q 162.63 194.38 159.62 192.55
  Q 159.33 192.38 158.64 191.69
  Q 157.63 190.67 157.10 191.97
  A 1.60 0.72 -77.8 0 1 156.54 192.73
  Q 155.71 193.23 154.77 192.90
  A 1.13 0.85 86.2 0 1 154.18 192.22
  Z
  M 79.86 194.95
  A 1.61 1.60 -86.2 0 1 78.55 193.44
  Q 78.39 190.25 77.40 191.42
  Q 76.98 191.91 76.93 192.70
  Q 76.68 196.55 80.25 197.00
  Q 83.85 197.46 84.75 193.50
  Q 85.18 191.59 85.02 186.55
  Q 85.00 185.95 84.78 185.50
  Q 83.94 183.80 83.39 185.68
  Q 83.25 186.18 83.29 186.83
  Q 83.63 191.91 83.25 193.00
  Q 82.40 195.41 79.86 194.95
  Z
  M 115.9283 185.3802
  A 0.63 0.63 0.0 0 0 115.2885 184.7602
  L 115.2285 184.7611
  A 0.63 0.63 0.0 0 0 114.6085 185.4009
  L 114.7517 194.5198
  A 0.63 0.63 0.0 0 0 115.3915 195.1398
  L 115.4515 195.1389
  A 0.63 0.63 0.0 0 0 116.0715 194.4991
  L 115.9283 185.3802
  Z
  M 148.0922 187.3731
  A 1.01 0.88 63.4 0 0 148.4269 186.0760
  A 1.01 0.88 63.4 0 0 147.1878 185.5669
  A 1.01 0.88 63.4 0 0 146.8531 186.8640
  A 1.01 0.88 63.4 0 0 148.0922 187.3731
  Z
  M 134.59 186.75
  A 0.81 0.81 0.0 0 0 133.78 185.94
  A 0.81 0.81 0.0 0 0 132.97 186.75
  A 0.81 0.81 0.0 0 0 133.78 187.56
  A 0.81 0.81 0.0 0 0 134.59 186.75
  Z
  M 91.4745 187.8286
  A 1.05 0.86 25.9 0 0 90.9056 186.5964
  A 1.05 0.86 25.9 0 0 89.5855 186.9114
  A 1.05 0.86 25.9 0 0 90.1544 188.1436
  A 1.05 0.86 25.9 0 0 91.4745 187.8286
  Z
  M 99.8256 188.1769
  A 0.93 0.70 -10.1 0 0 98.7872 187.6508
  A 0.93 0.70 -10.1 0 0 97.9944 188.5031
  A 0.93 0.70 -10.1 0 0 99.0328 189.0292
  A 0.93 0.70 -10.1 0 0 99.8256 188.1769
  Z
  M 154.0588 188.4984
  A 0.99 0.85 2.8 0 0 153.1115 187.6010
  A 0.99 0.85 2.8 0 0 152.0812 188.4016
  A 0.99 0.85 2.8 0 0 153.0285 189.2990
  A 0.99 0.85 2.8 0 0 154.0588 188.4984
  Z
  M 160.1130 188.3178
  A 0.30 0.30 0.0 0 0 159.8156 188.0152
  L 156.3357 187.9848
  A 0.30 0.30 0.0 0 0 156.0331 188.2822
  L 156.0270 188.9822
  A 0.30 0.30 0.0 0 0 156.3244 189.2848
  L 159.8043 189.3152
  A 0.30 0.30 0.0 0 0 160.1069 189.0178
  L 160.1130 188.3178
  Z
  M 89.86 193.86
  Q 88.81 195.73 86.78 196.62
  A 1.37 0.89 -10.2 0 0 86.10 197.26
  Q 85.66 198.39 87.25 198.00
  Q 92.11 196.80 91.77 191.07
  Q 91.69 189.72 90.85 190.16
  A 1.11 0.87 85.0 0 0 90.35 190.92
  Q 90.22 191.67 90.19 192.44
  Q 90.16 193.32 89.86 193.86
  Z
  M 137.63 197.14
  Q 136.72 197.12 137.04 198.04
  A 0.54 0.48 -19.5 0 0 137.71 198.31
  Q 138.96 197.89 140.13 198.45
  A 0.41 0.37 18.2 0 0 140.70 198.20
  Q 140.99 196.66 138.50 197.10
  Q 138.21 197.15 137.63 197.14
  Z"
/>
<path fill="#06b8df" d="
  M 78.19 74.81
  L 66.69 74.58
  A 0.55 0.53 0.0 0 1 66.15 74.06
  L 66.04 64.55
  A 2.13 1.95 -18.9 0 1 66.96 62.86
  L 124.52 23.84
  Q 125.25 23.35 125.25 24.23
  L 125.25 83.26
  A 0.53 0.49 -1.2 0 1 124.74 83.75
  L 117.01 83.97
  A 0.80 0.75 3.5 0 1 116.19 83.10
  Q 117.62 74.59 119.12 66.43
  Q 119.13 66.37 119.44 65.07
  Q 120.15 62.06 117.61 61.27
  A 1.56 1.56 8.6 0 1 116.51 59.78
  Q 116.46 53.02 111.31 52.34
  Q 108.78 52.01 107.07 53.34
  Q 105.32 54.70 104.57 57.39
  A 0.56 0.56 27.8 0 1 103.66 57.67
  Q 98.57 53.36 93.42 50.80
  Q 91.59 49.90 89.59 50.28
  Q 86.82 50.81 87.91 54.58
  Q 88.30 55.95 89.11 57.12
  Q 90.07 58.50 87.53 59.42
  A 1.94 1.89 -10.6 0 0 86.25 61.24
  L 86.52 83.06
  A 0.92 0.91 89.4 0 1 85.61 84.00
  L 79.43 84.00
  A 0.71 0.69 89.6 0 1 78.74 83.30
  L 78.70 75.31
  A 0.52 0.50 0.6 0 0 78.19 74.81
  Z
  M 117.89 40.74
  A 2.93 2.93 0.0 0 0 114.96 37.81
  A 2.93 2.93 0.0 0 0 112.03 40.74
  A 2.93 2.93 0.0 0 0 114.96 43.67
  A 2.93 2.93 0.0 0 0 117.89 40.74
  Z
  M 109.48 47.56
  A 3.35 3.35 0.0 0 0 106.13 44.21
  A 3.35 3.35 0.0 0 0 102.78 47.56
  A 3.35 3.35 0.0 0 0 106.13 50.91
  A 3.35 3.35 0.0 0 0 109.48 47.56
  Z"
/>
<path fill="#06b8df" d="
  M 137.10 73.51
  Q 136.65 74.69 137.79 74.89
  Q 138.27 74.98 139.06 74.73
  Q 141.95 73.81 145.00 73.79
  Q 152.12 73.76 159.19 74.51
  A 1.14 1.00 -12.0 0 1 159.99 74.96
  Q 160.81 76.15 160.64 77.70
  A 0.69 0.68 -74.1 0 0 161.02 78.39
  Q 164.08 79.86 164.29 83.31
  A 0.47 0.46 -2.2 0 1 163.82 83.81
  L 133.31 83.69
  A 0.51 0.50 -0.6 0 1 132.80 83.20
  Q 132.09 53.73 132.74 24.55
  Q 132.77 23.35 133.77 24.03
  L 176.20 52.82
  Q 177.23 53.52 176.07 53.98
  Q 156.56 61.71 136.95 69.56
  Q 136.18 69.87 135.90 70.37
  Q 135.41 71.24 136.34 71.65
  A 1.29 0.97 -37.9 0 0 137.27 71.63
  Q 157.30 63.48 177.55 55.92
  Q 178.03 55.74 178.47 55.68
  Q 181.34 55.29 178.63 56.93
  Q 178.22 57.17 177.71 57.36
  Q 157.58 64.70 137.77 72.88
  A 1.26 1.02 -4.2 0 0 137.10 73.51
  Z
  M 145.73 43.26
  Q 142.99 41.95 142.77 39.55
  A 0.48 0.31 87.8 0 0 142.48 39.13
  Q 142.30 39.11 142.14 39.29
  Q 142.01 39.44 141.99 39.76
  Q 141.80 42.38 139.34 43.30
  Q 137.96 43.82 139.42 44.06
  Q 142.10 44.49 142.18 47.18
  Q 142.21 47.91 142.42 47.95
  A 0.63 0.28 -81.7 0 0 142.79 47.36
  Q 143.12 45.07 145.74 43.71
  Q 146.19 43.47 145.73 43.26
  Z
  M 158.05 50.18
  A 0.35 0.35 -0.1 0 1 157.81 49.94
  L 156.70 45.98
  A 0.35 0.35 44.8 0 0 156.03 45.98
  L 154.92 49.94
  A 0.35 0.35 89.6 0 1 154.68 50.18
  L 150.73 51.30
  A 0.35 0.35 0.0 0 0 150.73 51.97
  L 154.68 53.07
  A 0.35 0.35 89.9 0 1 154.92 53.31
  L 156.04 57.26
  A 0.35 0.35 46.5 0 0 156.71 57.26
  L 157.82 53.31
  A 0.35 0.35 0.0 0 1 158.06 53.07
  L 162.01 51.95
  A 0.35 0.35 0.0 0 0 162.01 51.28
  L 158.05 50.18
  Z"
/>
<circle fill="#e3ffff" cx="114.96" cy="40.74" r="2.93"/>
<path fill="#e3ffff" d="
  M 145.73 43.26
  Q 146.19 43.47 145.74 43.71
  Q 143.12 45.07 142.79 47.36
  A 0.63 0.28 -81.7 0 1 142.42 47.95
  Q 142.21 47.91 142.18 47.18
  Q 142.10 44.49 139.42 44.06
  Q 137.96 43.82 139.34 43.30
  Q 141.80 42.38 141.99 39.76
  Q 142.01 39.44 142.14 39.29
  Q 142.30 39.11 142.48 39.13
  A 0.48 0.31 87.8 0 1 142.77 39.55
  Q 142.99 41.95 145.73 43.26
  Z"
/>
<circle fill="#fdfdfb" cx="106.13" cy="47.56" r="3.35"/>
<path fill="#e3ffff" d="
  M 158.05 50.18
  L 162.01 51.28
  A 0.35 0.35 46.3 0 1 162.01 51.95
  L 158.06 53.07
  A 0.35 0.35 -0.0 0 0 157.82 53.31
  L 156.71 57.26
  A 0.35 0.35 58.9 0 1 156.04 57.26
  L 154.92 53.31
  A 0.35 0.35 89.9 0 0 154.68 53.07
  L 150.73 51.97
  A 0.35 0.35 45.8 0 1 150.73 51.30
  L 154.68 50.18
  A 0.35 0.35 89.9 0 0 154.92 49.94
  L 156.03 45.98
  A 0.35 0.35 43.5 0 1 156.70 45.98
  L 157.81 49.94
  A 0.35 0.35 -0.1 0 0 158.05 50.18
  Z"
/>
<path fill="#0db4da" d="
  M 99.49 56.81
  Q 100.47 57.67 99.17 57.71
  L 92.81 57.93
  A 1.53 1.42 -27.0 0 1 91.90 57.67
  Q 89.31 55.85 89.75 53.45
  Q 90.11 51.53 91.94 52.22
  Q 95.99 53.75 99.49 56.81
  Z"
/>
<path fill="#06b8df" d="
  M 167.36 74.94
  L 165.76 73.17
  A 0.74 0.59 -50.1 0 1 165.78 72.34
  Q 168.28 68.65 171.63 65.76
  Q 172.03 65.42 175.87 61.73
  Q 178.67 59.05 182.52 57.89
  A 1.15 0.95 -33.3 0 1 183.43 57.99
  L 191.15 63.14
  A 2.17 1.88 -75.3 0 1 192.00 64.86
  L 192.00 73.79
  A 0.93 0.88 -89.4 0 1 191.10 74.72
  L 181.23 74.56
  Q 179.31 74.53 179.22 76.55
  L 178.91 83.32
  A 0.58 0.53 2.6 0 1 178.31 83.82
  L 169.24 83.54
  A 1.03 0.98 73.0 0 1 168.46 83.10
  Q 166.05 79.62 167.56 75.71
  A 0.84 0.64 38.3 0 0 167.36 74.94
  Z"
/>
<path fill="#0db4da" d="
  M 98.24 65.51
  Q 99.22 63.58 97.28 62.61
  Q 95.34 61.64 94.68 60.21
  A 0.35 0.35 77.1 0 1 94.99 59.71
  L 103.83 59.78
  A 1.39 1.15 70.5 0 1 104.88 60.41
  Q 108.95 66.59 114.58 62.67
  Q 115.18 62.25 115.64 62.16
  Q 117.00 61.91 116.41 63.24
  A 1.31 1.14 -2.3 0 1 115.73 63.88
  Q 111.39 65.64 106.26 64.66
  A 1.25 1.25 -87.8 0 0 104.78 66.03
  Q 105.22 69.86 102.01 70.21
  Q 100.22 70.41 98.92 69.21
  Q 97.18 67.59 98.24 65.51
  Z
  M 102.90 67.11
  A 1.58 1.58 0.0 0 0 101.32 65.53
  A 1.58 1.58 0.0 0 0 99.74 67.11
  A 1.58 1.58 0.0 0 0 101.32 68.69
  A 1.58 1.58 0.0 0 0 102.90 67.11
  Z"
/>
<circle fill="#e3ffff" cx="101.32" cy="67.11" r="1.58"/>
<path fill="#03b9e0" d="
  M 112.79 102.23
  L 113.46 103.25
  Q 113.68 103.94 114.94 104.31
  Q 119.67 105.72 125.00 106.86
  A 0.63 0.62 -84.5 0 1 125.50 107.48
  L 125.50 140.32
  A 0.68 0.68 0.0 0 1 124.82 141.00
  L 105.76 141.00
  A 0.82 0.81 83.2 0 1 104.97 140.37
  Q 103.46 133.93 98.89 127.83
  A 1.19 1.18 -58.7 0 1 98.67 126.91
  Q 99.42 122.46 96.95 120.37
  Q 95.55 119.18 92.74 119.35
  Q 89.53 119.55 88.25 120.00
  Q 82.59 121.99 85.37 128.38
  A 2.07 2.06 44.0 0 1 85.40 129.91
  Q 83.36 135.31 82.97 140.19
  A 0.74 0.69 85.2 0 1 82.46 140.84
  Q 80.88 141.29 79.30 140.85
  A 0.69 0.68 -82.2 0 1 78.81 140.19
  Q 78.71 130.15 78.75 120.12
  Q 78.75 120.01 78.64 118.39
  Q 78.46 115.61 80.92 115.27
  Q 82.93 114.99 83.57 115.04
  Q 85.17 115.16 85.55 117.55
  A 1.82 1.72 80.7 0 0 87.55 119.08
  L 94.07 117.94
  A 0.75 0.64 -89.9 0 0 94.61 117.31
  L 95.75 109.00
  Q 96.11 106.37 97.19 108.81
  Q 100.12 115.45 106.99 117.60
  Q 107.59 117.79 108.03 117.71
  Q 108.98 117.53 108.46 116.69
  Q 108.28 116.39 107.81 116.04
  Q 103.42 112.77 101.76 107.52
  Q 101.31 106.12 102.73 106.50
  Q 104.08 106.85 104.54 106.01
  Q 104.81 105.52 104.55 104.48
  Q 104.23 103.17 104.03 101.96
  A 0.89 0.88 -7.5 0 0 103.06 101.22
  Q 98.39 101.72 93.90 102.39
  Q 87.34 103.36 86.15 103.79
  Q 82.29 105.18 79.75 108.91
  Q 78.75 110.37 78.76 108.61
  L 78.80 92.07
  A 0.85 0.84 0.7 0 1 79.66 91.24
  Q 101.53 91.39 121.85 91.07
  Q 122.54 91.06 123.00 91.20
  Q 124.68 91.73 122.55 92.78
  Q 116.02 96.00 112.79 102.23
  Z"
/>
<path fill="#06b8df" d="
  M 137.07 135.68
  Q 136.39 136.72 133.12 135.91
  A 0.83 0.83 7.2 0 1 132.50 135.11
  L 132.50 91.92
  A 0.67 0.67 -90.0 0 1 133.17 91.25
  L 148.69 91.30
  A 0.32 0.32 -76.4 0 1 148.97 91.76
  Q 147.62 94.46 146.13 97.08
  Q 144.81 99.38 144.43 101.87
  Q 142.03 117.39 138.17 133.16
  Q 137.83 134.52 137.07 135.68
  Z"
/>
<path fill="#03b9e0" d="
  M 166.08 92.59
  Q 169.15 95.36 170.25 100.50
  Q 171.23 105.05 169.15 107.96
  Q 167.71 109.99 167.24 110.80
  Q 166.27 112.47 164.94 113.44
  Q 158.92 117.80 156.31 124.06
  Q 154.10 129.37 152.83 137.51
  A 1.14 0.86 -15.3 0 1 152.29 138.21
  Q 151.42 138.73 150.75 140.00
  Q 149.72 141.93 148.34 140.60
  Q 148.01 140.28 147.42 138.83
  Q 146.60 136.83 143.94 137.10
  Q 140.41 137.47 141.02 134.00
  Q 144.31 115.24 149.04 96.79
  Q 149.63 94.46 150.45 93.43
  Q 151.72 91.82 153.68 91.38
  Q 154.44 91.20 158.82 91.21
  Q 160.74 91.21 162.66 91.31
  Q 164.79 91.43 166.08 92.59
  Z"
/>
<path fill="#0db4da" d="
  M 173.83 108.82
  Q 172.64 108.01 172.76 105.99
  Q 173.17 98.54 168.63 92.13
  Q 168.04 91.30 169.05 91.30
  L 178.43 91.30
  A 0.52 0.52 89.4 0 1 178.95 91.81
  Q 179.58 115.90 179.01 140.00
  A 0.92 0.85 76.9 0 1 178.58 140.76
  Q 176.54 141.92 176.81 139.31
  Q 177.34 134.21 173.90 131.32
  A 1.08 0.92 24.9 0 1 173.52 130.50
  L 174.85 110.98
  A 2.47 2.35 -71.7 0 0 173.83 108.82
  Z"
/>
<rect fill="#08abcd" x="-6.22" y="-0.92" transform="translate(119.56,98.45) rotate(-22.5)" width="12.44" height="1.84" rx="0.88"/>
<path fill="#08abcd" d="
  M 113.46 103.25
  L 112.79 102.23
  L 124.70 101.33
  A 0.68 0.63 -9.6 0 1 125.39 101.78
  Q 125.58 102.44 125.11 102.89
  Q 124.80 103.19 124.16 103.18
  Q 118.81 103.17 113.46 103.25
  Z"
/>
<circle fill="#0db4da" cx="170.03" cy="137.48" r="3.57"/>
<ellipse fill="#08abcd" cx="0.00" cy="0.00" transform="translate(214.07,148.62) rotate(90.1)" rx="1.18" ry="0.93"/>
<path fill="#08abcd" d="
  M 173.06 157.70
  Q 181.23 158.00 181.25 166.52
  Q 181.26 169.64 178.47 171.05
  Q 176.31 172.14 173.40 172.09
  Q 170.73 172.04 170.59 172.04
  Q 167.53 172.08 164.32 171.66
  Q 162.61 171.43 161.82 169.90
  Q 161.19 168.69 159.99 169.49
  Q 159.15 170.04 159.09 170.07
  Q 156.45 171.40 154.11 170.36
  Q 152.03 169.44 150.91 167.13
  Q 149.27 163.73 151.46 159.90
  Q 153.89 155.66 158.50 157.25
  Q 160.12 157.81 160.43 156.50
  A 1.46 0.72 -87.7 0 1 160.88 155.68
  Q 161.82 155.01 162.29 155.93
  Q 162.50 156.34 162.51 157.11
  Q 162.54 160.94 162.20 164.75
  Q 161.97 167.20 163.43 168.67
  Q 164.51 169.75 166.91 169.92
  Q 171.58 170.25 176.27 169.75
  Q 178.45 169.52 178.82 167.36
  Q 180.08 160.04 172.78 159.97
  Q 172.19 159.97 170.76 160.30
  Q 168.00 160.94 169.69 157.69
  Q 171.09 154.98 177.50 149.34
  Q 177.88 149.00 178.22 149.02
  Q 178.73 149.05 178.73 149.59
  Q 178.73 149.89 178.46 150.20
  Q 175.50 153.61 172.86 157.28
  Q 172.57 157.68 173.06 157.70
  Z
  M 160.2622 162.5736
  A 3.55 3.55 0.0 0 0 156.7434 158.9927
  L 156.1634 158.9877
  A 3.55 3.55 0.0 0 0 152.5825 162.5065
  L 152.5578 165.3464
  A 3.55 3.55 0.0 0 0 156.0766 168.9273
  L 156.6566 168.9323
  A 3.55 3.55 0.0 0 0 160.2375 165.4135
  L 160.2622 162.5736
  Z"
/>
<path fill="#08abcd" d="
  M 59.07 157.68
  Q 66.78 157.74 67.25 165.25
  Q 67.58 170.47 63.45 171.66
  Q 61.95 172.09 57.01 172.09
  Q 52.35 172.08 47.74 171.33
  A 0.51 0.49 -80.1 0 0 47.17 171.74
  Q 46.55 175.27 43.94 176.94
  Q 40.29 179.26 36.40 178.32
  Q 32.65 177.41 30.75 174.18
  Q 28.28 169.99 31.06 164.81
  Q 31.53 163.95 32.27 164.29
  A 0.65 0.55 -69.8 0 1 32.54 165.04
  Q 31.62 168.02 31.56 169.31
  Q 31.35 174.18 35.44 175.81
  Q 40.74 177.93 43.56 174.34
  Q 44.98 172.54 45.12 168.78
  Q 45.63 155.86 45.25 152.25
  Q 44.98 149.73 46.83 150.06
  A 0.66 0.59 -85.3 0 1 47.31 150.70
  Q 47.26 158.10 47.50 165.50
  Q 47.64 169.65 51.31 169.94
  Q 52.91 170.07 58.93 170.01
  Q 59.00 170.01 60.58 170.10
  Q 62.53 170.22 63.79 169.02
  Q 64.83 168.04 64.88 166.15
  Q 65.08 159.04 56.99 160.25
  Q 53.18 160.82 55.55 157.79
  Q 58.98 153.42 63.24 149.60
  Q 63.64 149.24 63.99 149.21
  Q 64.41 149.17 64.58 149.46
  A 0.95 0.54 -46.2 0 1 64.36 150.32
  L 58.85 157.29
  Q 58.54 157.68 59.07 157.68
  Z"
/>
<circle fill="#08abcd" cx="155.47" cy="150.73" r="1.27"/>
<circle fill="#08abcd" cx="159.50" cy="150.75" r="1.27"/>
<circle fill="#08abcd" cx="90.15" cy="151.02" r="1.22"/>
<circle fill="#08abcd" cx="94.16" cy="151.06" r="1.20"/>
<path fill="#12adcc" d="
  M 84.06 167.89
  Q 84.07 170.78 86.89 170.16
  Q 91.71 169.10 91.72 166.00
  Q 91.73 162.23 92.19 158.50
  A 1.40 1.15 76.9 0 1 92.61 157.65
  Q 94.05 156.37 93.98 159.00
  Q 93.87 163.11 94.26 167.20
  A 1.69 1.52 -70.3 0 0 94.62 168.08
  Q 97.14 171.07 101.00 169.75
  Q 104.26 168.64 103.75 164.75
  Q 103.37 161.87 105.21 159.44
  Q 106.84 157.30 109.62 156.95
  Q 114.50 156.32 116.13 161.02
  Q 116.21 161.25 116.70 165.68
  Q 117.33 171.39 124.33 169.56
  Q 126.44 169.01 126.50 166.81
  L 126.98 151.00
  A 1.18 1.02 74.2 0 1 127.37 150.17
  Q 129.00 148.84 129.00 151.50
  Q 129.00 159.51 128.87 164.14
  Q 128.76 168.26 127.29 169.97
  Q 125.11 172.51 120.75 172.00
  Q 117.95 171.67 115.96 170.35
  A 0.62 0.62 41.2 0 0 115.20 170.40
  Q 110.23 174.83 105.36 170.34
  A 0.64 0.63 50.0 0 0 104.59 170.27
  Q 99.00 173.92 93.42 170.28
  A 0.75 0.75 44.1 0 0 92.59 170.29
  Q 89.41 172.43 85.11 171.96
  A 1.27 1.26 14.2 0 0 83.79 172.74
  Q 80.83 180.09 73.81 177.94
  Q 73.14 177.73 72.85 177.32
  Q 72.37 176.66 73.05 176.22
  A 1.14 0.82 33.2 0 1 73.96 176.18
  Q 78.36 177.79 80.95 173.82
  Q 82.11 172.05 79.99 172.01
  Q 72.51 171.85 71.43 166.09
  Q 70.72 162.30 72.57 159.28
  Q 74.96 155.38 80.50 157.25
  Q 83.42 158.24 83.74 162.00
  Q 84.06 165.84 84.06 167.89
  Z
  M 79.39 159.22
  Q 77.13 158.43 75.52 159.49
  Q 74.24 160.33 73.74 162.45
  Q 72.04 169.60 80.55 169.76
  A 0.94 0.89 -0.6 0 0 81.50 168.84
  L 81.29 161.64
  Q 81.23 159.86 79.39 159.22
  Z
  M 110.2292 170.5100
  A 5.95 4.21 90.2 0 0 114.4600 164.5747
  A 5.95 4.21 90.2 0 0 110.2708 158.6100
  A 5.95 4.21 90.2 0 0 106.0400 164.5453
  A 5.95 4.21 90.2 0 0 110.2292 170.5100
  Z"
/>
<rect fill="#12adcc" x="135.10" y="149.79" width="2.40" height="22.42" rx="1.17"/>
<ellipse fill="#08abcd" cx="0.00" cy="0.00" transform="translate(212.22,152.17) rotate(72.3)" rx="1.24" ry="1.02"/>
<ellipse fill="#08abcd" cx="0.00" cy="0.00" transform="translate(216.21,152.14) rotate(62.5)" rx="1.25" ry="1.11"/>
<path fill="#08abcd" d="
  M 191.35 171.14
  A 0.51 0.50 -72.8 0 0 190.67 171.50
  Q 188.72 180.20 180.80 178.08
  A 1.34 1.25 -6.5 0 1 180.04 177.52
  Q 178.80 175.44 181.52 176.19
  Q 185.19 177.19 187.04 174.90
  Q 188.19 173.49 188.37 170.19
  Q 188.61 165.78 188.43 160.03
  A 3.65 3.63 -28.2 0 1 189.12 157.78
  Q 189.64 157.06 190.26 157.29
  A 0.87 0.67 -82.0 0 1 190.70 158.06
  L 190.75 166.09
  Q 190.77 168.89 193.39 169.69
  Q 195.86 170.44 198.85 169.83
  Q 201.60 169.27 201.75 166.02
  L 201.98 161.05
  A 1.07 0.91 -18.1 0 1 202.46 160.27
  Q 204.11 159.18 204.07 161.75
  Q 204.02 164.59 204.27 167.43
  A 1.48 1.23 -73.5 0 0 204.65 168.31
  Q 206.61 170.35 209.81 169.81
  Q 212.89 169.30 212.85 166.25
  Q 212.82 163.14 213.24 160.06
  A 1.43 1.25 76.2 0 1 213.68 159.21
  Q 215.36 157.73 215.24 160.50
  Q 215.13 162.84 215.32 165.17
  Q 215.53 167.85 217.13 169.09
  Q 219.96 171.28 223.43 168.62
  A 1.50 1.36 79.8 0 0 223.93 167.82
  Q 224.87 163.86 224.47 159.75
  Q 224.25 157.47 226.07 157.61
  A 0.67 0.59 88.6 0 1 226.62 158.20
  Q 227.01 162.07 226.57 165.91
  Q 226.23 168.86 224.48 170.33
  Q 220.58 173.60 214.54 170.26
  A 0.85 0.85 42.9 0 0 213.66 170.29
  Q 209.24 173.21 204.80 171.07
  Q 204.73 171.04 203.51 170.09
  Q 202.60 169.37 201.72 170.52
  A 1.88 1.19 -70.9 0 1 200.97 171.12
  Q 196.02 173.04 191.35 171.14
  Z"
/>
<path fill="#fdfdfb" d="
  M 79.39 159.22
  Q 81.23 159.86 81.29 161.64
  L 81.50 168.84
  A 0.94 0.89 -0.6 0 1 80.55 169.76
  Q 72.04 169.60 73.74 162.45
  Q 74.24 160.33 75.52 159.49
  Q 77.13 158.43 79.39 159.22
  Z"
/>
<ellipse fill="#fdfdfb" cx="0.00" cy="0.00" transform="translate(110.25,164.56) rotate(90.2)" rx="5.95" ry="4.21"/>
<rect fill="#fdfdfb" x="-3.84" y="-4.97" transform="translate(156.41,163.96) rotate(0.5)" width="7.68" height="9.94" rx="3.55"/>
<path fill="#08abcd" d="
  M 100.66 193.00
  A 1.99 1.97 -59.0 0 0 102.63 192.50
  Q 105.06 190.06 107.08 191.90
  Q 110.73 195.23 110.74 190.25
  Q 110.75 187.87 110.75 185.49
  A 1.20 0.86 76.1 0 1 111.09 184.64
  Q 111.80 184.03 112.00 185.50
  Q 112.30 187.65 111.88 192.16
  Q 111.72 193.96 110.84 194.47
  Q 109.82 195.07 107.96 194.91
  Q 107.45 194.87 106.95 195.03
  Q 104.77 195.73 103.61 194.84
  A 0.94 0.83 52.3 0 0 102.78 194.68
  Q 101.11 195.25 99.96 194.60
  A 1.52 1.50 51.6 0 0 98.83 194.46
  Q 93.75 195.77 93.63 191.50
  Q 93.54 188.63 93.51 185.76
  Q 93.50 185.18 93.75 184.82
  Q 94.36 183.96 94.84 185.06
  Q 95.00 185.44 94.98 185.98
  Q 94.73 190.93 95.25 192.00
  Q 96.42 194.38 98.66 191.60
  Q 99.32 190.79 99.69 191.77
  Q 100.09 192.82 100.66 193.00
  Z
  M 105.9591 193.5745
  A 0.82 0.74 20.3 0 0 105.4467 192.5960
  A 0.82 0.74 20.3 0 0 104.4209 193.0055
  A 0.82 0.74 20.3 0 0 104.9333 193.9840
  A 0.82 0.74 20.3 0 0 105.9591 193.5745
  Z"
/>
<path fill="#08abcd" d="
  M 154.77 192.90
  Q 155.71 193.23 156.54 192.73
  A 1.60 0.72 -77.8 0 0 157.10 191.97
  Q 157.63 190.67 158.64 191.69
  Q 159.33 192.38 159.62 192.55
  Q 162.63 194.38 162.00 190.00
  Q 161.49 186.49 162.00 185.25
  Q 162.36 184.36 163.05 184.54
  A 0.86 0.66 -88.6 0 1 163.56 185.24
  Q 164.04 189.48 163.28 193.69
  A 1.03 0.93 83.8 0 1 162.75 194.42
  Q 161.27 195.12 159.69 194.89
  Q 157.34 194.55 156.75 194.58
  Q 152.75 194.77 148.75 194.73
  Q 148.40 194.73 144.14 194.96
  Q 141.81 195.08 139.49 194.61
  Q 139.01 194.51 138.53 194.64
  Q 136.38 195.19 134.24 194.64
  A 1.97 1.75 41.7 0 0 133.27 194.64
  Q 128.92 195.87 124.54 194.81
  A 1.36 1.20 -7.9 0 1 123.76 194.29
  Q 122.71 192.78 123.19 190.97
  Q 123.31 190.49 123.65 190.31
  Q 124.17 190.02 124.41 190.66
  Q 124.49 190.87 124.45 191.36
  Q 124.29 193.27 127.15 193.33
  Q 128.59 193.36 130.00 193.66
  Q 131.65 194.00 131.81 192.22
  Q 131.97 190.46 131.99 190.42
  Q 132.60 188.27 134.81 189.19
  Q 136.86 190.03 135.76 192.07
  A 0.58 0.48 -60.3 0 0 135.89 192.80
  Q 136.60 193.24 137.39 192.84
  A 1.58 0.80 -77.9 0 0 137.99 192.10
  Q 138.68 190.59 139.65 191.64
  Q 140.38 192.44 140.63 192.60
  Q 143.11 194.20 142.95 190.50
  Q 142.84 187.98 143.18 185.49
  A 0.96 0.64 89.6 0 1 143.67 184.74
  Q 143.85 184.68 144.06 184.71
  A 0.52 0.49 2.1 0 1 144.52 185.18
  L 144.74 189.12
  A 0.71 0.63 76.8 0 0 145.65 189.76
  Q 148.56 188.37 149.25 191.00
  Q 150.32 195.11 152.25 192.00
  Q 153.47 190.03 154.18 192.22
  A 1.13 0.85 86.2 0 0 154.77 192.90
  Z
  M 134.76 191.57
  A 0.86 0.86 0.0 0 0 133.90 190.71
  A 0.86 0.86 0.0 0 0 133.04 191.57
  A 0.86 0.86 0.0 0 0 133.90 192.43
  A 0.86 0.86 0.0 0 0 134.76 191.57
  Z
  M 147.7803 191.4307
  A 1.82 0.87 -20.9 0 0 145.7696 191.2672
  A 1.82 0.87 -20.9 0 0 144.3797 192.7293
  A 1.82 0.87 -20.9 0 0 146.3904 192.8928
  A 1.82 0.87 -20.9 0 0 147.7803 191.4307
  Z"
/>
<path fill="#08abcd" d="
  M 79.86 194.95
  Q 82.40 195.41 83.25 193.00
  Q 83.63 191.91 83.29 186.83
  Q 83.25 186.18 83.39 185.68
  Q 83.94 183.80 84.78 185.50
  Q 85.00 185.95 85.02 186.55
  Q 85.18 191.59 84.75 193.50
  Q 83.85 197.46 80.25 197.00
  Q 76.68 196.55 76.93 192.70
  Q 76.98 191.91 77.40 191.42
  Q 78.39 190.25 78.55 193.44
  A 1.61 1.60 -86.2 0 0 79.86 194.95
  Z"
/>
<rect fill="#08abcd" x="-0.66" y="-5.19" transform="translate(115.34,189.95) rotate(-0.9)" width="1.32" height="10.38" rx="0.63"/>
<ellipse fill="#0db4da" cx="0.00" cy="0.00" transform="translate(147.64,186.47) rotate(63.4)" rx="1.01" ry="0.88"/>
<circle fill="#08abcd" cx="133.78" cy="186.75" r="0.81"/>
<ellipse fill="#0db4da" cx="0.00" cy="0.00" transform="translate(90.53,187.37) rotate(25.9)" rx="1.05" ry="0.86"/>
<ellipse fill="#08abcd" cx="0.00" cy="0.00" transform="translate(98.91,188.34) rotate(-10.1)" rx="0.93" ry="0.70"/>
<ellipse fill="#12adcc" cx="0.00" cy="0.00" transform="translate(153.07,188.45) rotate(2.8)" rx="0.99" ry="0.85"/>
<rect fill="#0db4da" x="-2.04" y="-0.65" transform="translate(158.07,188.65) rotate(0.5)" width="4.08" height="1.30" rx="0.30"/>
<path fill="#08abcd" d="
  M 90.19 192.44
  Q 90.22 191.67 90.35 190.92
  A 1.11 0.87 85.0 0 1 90.85 190.16
  Q 91.69 189.72 91.77 191.07
  Q 92.11 196.80 87.25 198.00
  Q 85.66 198.39 86.10 197.26
  A 1.37 0.89 -10.2 0 1 86.78 196.62
  Q 88.81 195.73 89.86 193.86
  Q 90.16 193.32 90.19 192.44
  Z"
/>
<circle fill="#e3ffff" cx="133.90" cy="191.57" r="0.86"/>
<ellipse fill="#e3ffff" cx="0.00" cy="0.00" transform="translate(146.08,192.08) rotate(-20.9)" rx="1.82" ry="0.87"/>
<ellipse fill="#e3ffff" cx="0.00" cy="0.00" transform="translate(105.19,193.29) rotate(20.3)" rx="0.82" ry="0.74"/>
<path fill="#12adcc" d="
  M 138.50 197.10
  Q 140.99 196.66 140.70 198.20
  A 0.41 0.37 18.2 0 1 140.13 198.45
  Q 138.96 197.89 137.71 198.31
  A 0.54 0.48 -19.5 0 1 137.04 198.04
  Q 136.72 197.12 137.63 197.14
  Q 138.21 197.15 138.50 197.10
  Z"
/>
</svg>
